<?xml version="1.0" encoding="UTF-8"?>
<svg id="a" data-name="Layer 1" xmlns="http://www.w3.org/2000/svg" viewBox="0 0 42 42">
  <defs>
    <style>
      .b {
        fill: #fff;
      }
    </style>
  </defs>
  <circle class="b" cx="31" cy="30.6" r="3"/>
  <g>
    <path class="b" d="M12.5,22.8h-2s0,0,0,0v1.9s0,0,0,0h2c.7,0,1.1-.4,1.1-1s-.4-.9-1-.9Z"/>
    <path class="b" d="M10.5,21.3h1.9c.5,0,.9-.2,1-.6.2-.6-.3-1.2-.9-1.2h-1.9s0,0,0,0v1.8s0,0,0,0Z"/>
    <path class="b" d="M21.1,19.5h-2s0,0,0,0v2.1s0,0,0,0h2c.8,0,1.3-.4,1.3-1.1s-.5-1-1.3-1Z"/>
    <path class="b" d="M25.8,17.7s0,0,0,0h.7c-1.5-5.7-6.6-9.8-12.7-9.8S.6,13.7.6,21s5.9,13.1,13.1,13.1,10-3.2,12-7.8v-8.7ZM12.8,26.4h-4.5s0,0,0,0v-8.7s0,0,0,0h4.5c1.6,0,2.6,1,2.6,2.4s-.8,1.8-1.4,1.8h0c.8.1,1.7.7,1.7,2.1s-1,2.5-2.9,2.5ZM22.3,26.4s0,0,0,0l-2.6-3s0,0,0,0h-.6s0,0,0,0v3s0,0,0,0h-2.1s0,0,0,0v-8.7s0,0,0,0h4.4c1.9,0,3.1,1.1,3.1,2.9s-.9,2.4-2.3,2.8c0,0,0,0,0,0l2.7,3s0,0,0,0h-2.5Z"/>
  </g>
  <g>
    <path class="b" d="M35.3,24.8s0,0,0,0h-3.6s0,0,0,0l-.4,1.1c.9.4,1.9.6,3,.6s1.2,0,1.7-.2l-.6-1.5Z"/>
    <path class="b" d="M34.1,12c-3.4,0-6.3,2.4-7.1,5.6h.8s0,0,0,0v5.3c.4.7.9,1.3,1.5,1.8l2.9-7s0,0,0,0h2.2s0,0,0,0l3.3,7.9c2.1-1.3,3.6-3.6,3.6-6.3,0-4-3.2-7.2-7.2-7.2Z"/>
    <path class="b" d="M34.5,23s0,0,0,0l-1.1-2.8s0,0,0,0l-1.1,2.8s0,0,0,0h2.2Z"/>
  </g>
</svg>