<svg id="Layer_1" data-name="Layer 1" xmlns="http://www.w3.org/2000/svg" viewBox="0 0 416.11 111.21"><defs><style>.cls-1{fill:#ffffff;}</style></defs><path class="cls-1" d="M287.7,52.11a.5.5,0,0,0,.39-.12.47.47,0,0,0,.18-.37l.2-4.85a1.29,1.29,0,0,0-1.05-1.32,10.8,10.8,0,0,0-11.34,5V47.33a1.28,1.28,0,0,0-1.28-1.28h-4a1.29,1.29,0,0,0-1.29,1.28v30a1.29,1.29,0,0,0,1.29,1.29h4a1.28,1.28,0,0,0,1.28-1.29v-15c0-3.43.78-6,2.3-7.59C280.6,52.3,284.68,51.78,287.7,52.11Z"/><path class="cls-1" d="M153.56,78.57a1.28,1.28,0,0,1-1.28-1.29V47.33a1.28,1.28,0,0,1,1.28-1.28h4a1.28,1.28,0,0,1,1.28,1.28v30a1.28,1.28,0,0,1-1.28,1.29Zm2-39.26a4.48,4.48,0,1,1,4.48-4.48A4.5,4.5,0,0,1,155.57,39.31Z"/><rect class="cls-1" x="294.12" y="46.05" width="6.59" height="32.52" rx="1.28"/><path class="cls-1" d="M362.52,78.57a1.3,1.3,0,0,1-1-.43l-14.1-15.77V77.28a1.28,1.28,0,0,1-1.28,1.29h-4a1.29,1.29,0,0,1-1.28-1.29V31.53a1.29,1.29,0,0,1,1.28-1.28h4a1.28,1.28,0,0,1,1.28,1.28V59.59l13-13.09a1.24,1.24,0,0,1,.91-.38h7.38a.51.51,0,0,1,.48.32.53.53,0,0,1-.12.56L354.86,60.9l15.63,16.81a.51.51,0,0,1,.1.55.52.52,0,0,1-.47.31Z"/><path class="cls-1" d="M231.62,78.57a1.29,1.29,0,0,1-1.28-1.29V59.41c0-4.71-2.3-8-7-8-6,0-8.65,4.35-8.65,10.41V77.28a1.28,1.28,0,0,1-1.28,1.29h-4a1.28,1.28,0,0,1-1.28-1.29V31.53a1.28,1.28,0,0,1,1.28-1.28h4a1.28,1.28,0,0,1,1.28,1.28v18.9c2-3.52,6.32-5.19,10.41-5.19,7.06,0,11.87,4.48,11.87,12.48V77.28a1.28,1.28,0,0,1-1.28,1.29Z"/><path class="cls-1" d="M119.63,78.57a1.28,1.28,0,0,1-1.28-1.29V31.53a1.28,1.28,0,0,1,1.28-1.28h4.43a1.28,1.28,0,0,1,1.28,1.28V72H146a1.28,1.28,0,0,1,1.28,1.28v4A1.28,1.28,0,0,1,146,78.57Z"/><path class="cls-1" d="M335.21,73.35a1.29,1.29,0,0,1,.37.92,1.34,1.34,0,0,1-.4.92,16.09,16.09,0,0,1-11.59,4.25c-9.74,0-17-6.6-17-16.94,0-9.85,6.69-17.14,17-17.14a16.79,16.79,0,0,1,11.67,4.35,1.33,1.33,0,0,1,.42.95,1.37,1.37,0,0,1-.42,1l-2.88,2.62a1.29,1.29,0,0,1-1.71,0,11.33,11.33,0,0,0-7.34-2.72c-6.4,0-9.74,5.16-9.74,11.08s3.9,10.61,10.07,10.61a10.28,10.28,0,0,0,6.95-2.6,1.31,1.31,0,0,1,.94-.41,1.28,1.28,0,0,1,.91.37Z"/><path class="cls-1" d="M380.24,54.74c0-1.73,1.77-3.31,5.11-3.31a9.13,9.13,0,0,1,6,2.35,1.28,1.28,0,0,0,1.63.06l2.91-2.2a1.28,1.28,0,0,0,.5-.88,1.26,1.26,0,0,0-.3-1,13,13,0,0,0-10.41-4.55c-6.58,0-12.43,3.65-12.43,10.17,0,3.08,1.45,6.55,6.27,8.22s11.24,1.71,11.24,5.77c0,2.59-3.21,3.79-6.23,3.79a10.76,10.76,0,0,1-7.1-2.93,1.27,1.27,0,0,0-1.7-.06L373,72.47a1.32,1.32,0,0,0-.46.89,1.27,1.27,0,0,0,.32,1,15.24,15.24,0,0,0,11.65,5.12c6.95,0,13.31-3.38,13.31-10.33C397.78,56.4,380.24,61.61,380.24,54.74Z"/><path class="cls-1" d="M254.67,68.8c0-.86-.07-1.76-.07-2.66V51.88H262a1.28,1.28,0,0,0,1.28-1.28V47.39A1.28,1.28,0,0,0,262,46.11H254.6v-7.7a1.28,1.28,0,0,0-1.28-1.28h-4A1.28,1.28,0,0,0,248,38.41v7.7h-5.74A1.28,1.28,0,0,0,241,47.39V50.6a1.28,1.28,0,0,0,1.28,1.28H248V68.3c0,4,.13,7.16,2.86,9.26,3.07,2.38,8.86,2.2,11.82,1.07a1.29,1.29,0,0,0,.82-1.2v-4.3a.51.51,0,0,0-.69-.48C258.72,74.14,254.9,73.39,254.67,68.8Z"/><path class="cls-1" d="M194.61,46.05a1.29,1.29,0,0,0-1.29,1.28v3c-2.5-3.28-6.94-5-11-5-10.11,0-16.52,7.55-16.52,17.07S172.78,79,182.3,79c4.28,0,8.59-1.69,11-5.36,0,4.5,1.26,15-11.29,15h0a15.06,15.06,0,0,1-10.61-4.13,1.29,1.29,0,0,0-1-.35,1.27,1.27,0,0,0-.91.48l-2.62,3.26a1.28,1.28,0,0,0,.17,1.78c3.89,3.29,8.35,5.14,15.08,5.14,10.28,0,17.74-6.58,17.74-16.73V47.33a1.28,1.28,0,0,0-1.28-1.28ZM183.05,72.79c-6.44,0-10.28-4.21-10.28-10.48,0-6.66,4.26-10.88,10.28-10.88s10.27,4.26,10.27,10.88C193.32,68.58,189.48,72.79,183.05,72.79Z"/><path class="cls-1" d="M297.42,39.31a4.48,4.48,0,1,1,4.48-4.48A4.5,4.5,0,0,1,297.42,39.31Z"/><path class="cls-1" d="M77.41,58.77h0a45.88,45.88,0,0,0,3.77-11.19c.66-4.14,0-7.41-1.92-9.72-2.33-2.77-6-3.54-9.57-3.56a42.22,42.22,0,0,0-9.11,1.2c-2.34-8.7-7.15-21.06-16.18-21.06C34,14.44,25.7,32.23,20.86,47.89c-1.78,5.76-4.79,17.2-4.79,22.82A24.18,24.18,0,0,0,40.32,94.77c15.14,0,44.09-9.37,44.09-24.06C84.41,66.18,81.66,62.16,77.41,58.77ZM69.67,39.61c1.88,0,4.43.26,5.58,1.75s1,3.67.68,5.37a39,39,0,0,1-2.94,9,59.54,59.54,0,0,0-9.41-4.44c-.43-3.52-1-7.14-1.76-10.68A37.24,37.24,0,0,1,69.67,39.61ZM64.2,57.25a49.27,49.27,0,0,1,6.5,3.25,108.11,108.11,0,0,1-6.1,10.14A114.72,114.72,0,0,0,64.2,57.25ZM58,49.49a72.92,72.92,0,0,0-14-2.67h0A107.58,107.58,0,0,1,56.69,42C57.21,44.48,57.64,47,58,49.49ZM29.6,38.84c4.87-12,10.41-19.08,14.84-19.08,5.67,0,9.54,11.61,11,17.09a112.26,112.26,0,0,0-16.54,6.52A78,78,0,0,0,25.13,52,129.08,129.08,0,0,1,29.6,38.84ZM40.18,89.45A18.75,18.75,0,1,1,40.32,52,63.55,63.55,0,0,1,58.7,55.22a100.69,100.69,0,0,1,.48,17.14C58.3,82.4,49.42,89.43,40.18,89.45Zm25.16-5.77a64,64,0,0,1-6.41,2.45A106.83,106.83,0,0,0,75,63.61c2.66,2.35,4.11,4.78,4.11,7.1C79.1,75.07,74.08,79.8,65.34,83.68Z"/></svg>