<svg xmlns="http://www.w3.org/2000/svg" viewBox="0 0 7469 2128" width="7469" height="2128">
  <g transform="translate(40,1615) scale(1,-1)">
    <path d="M147 983H336V811Q369 879 395 909Q479 1003 653 1001V834Q581 832 541 825Q332 800 336 514V0H147Z" transform="translate(0,0)" fill="white"/>
    <path d="M336 1415V805Q391 887 446 930Q550 1008 682 1006Q797 1006 887 946Q981 883 1010 768Q1026 702 1024 590V0H836V575Q836 702 805 770Q754 879 614 879Q464 879 393 758Q336 666 336 502V0H147V1415Z" transform="translate(716,0)" fill="white"/>
    <path d="M340 983V0H150V983ZM350 1415V1255H139V1415Z" transform="translate(1885,0)" fill="white"/>
    <path d="M100 983H854V852L295 131H877V0H100V156L643 852H100Z" transform="translate(2374,0)" fill="white"/>
    <path d="M580 1006Q818 1006 948 848Q1059 717 1059 489Q1059 274 950 141Q889 67 797 25Q697 -22 578 -23Q426 -23 307 53Q102 182 102 489Q102 745 244 883Q371 1006 580 1006ZM578 879Q441 879 371 778Q299 676 299 498Q299 340 350 240Q385 174 451 135Q506 102 580 104Q699 104 770 184Q862 284 862 500Q863 879 578 879Z" transform="translate(3354,0)" fill="white"/>
    <path d="M143 983H332V834Q443 1006 639 1006Q776 1006 864 928Q909 887 954 797Q1060 1006 1288 1006Q1442 1006 1534 911Q1624 819 1622 666V0H1434V610Q1434 731 1393 795Q1338 879 1229 879Q1110 879 1038 786Q981 710 981 569V0H793V569Q793 714 756 780Q727 831 666 858Q623 878 573 879Q477 879 412 811Q332 731 332 543V0H143Z" transform="translate(4523,0)" fill="white"/>
    <path d="M795 315H971Q957 178 874 92Q765 -25 555 -23Q342 -23 221 119Q100 260 100 492Q100 730 225 868Q350 1005 565 1006Q837 1006 940 772Q987 661 987 483Q987 473 987 455H287Q287 441 289 426Q289 356 324 270Q392 104 561 104Q766 104 795 315ZM805 588Q801 678 774 739Q745 807 684 846Q629 881 555 879Q395 879 328 731Q299 668 291 588Z" transform="translate(6296,0)" fill="white"/>
  </g>
  <rect x="40" y="1820" width="7389" height="102" fill="white"/>
</svg>
